<?xml version="1.0" encoding="iso-8859-1"?>
<!-- Generator: Adobe Illustrator 19.0.0, SVG Export Plug-In . SVG Version: 6.00 Build 0)  -->
<svg version="1.1" id="Capa_1" xmlns="http://www.w3.org/2000/svg" xmlns:xlink="http://www.w3.org/1999/xlink" x="0px" y="0px"
	 viewBox="0 0 480 480" style="enable-background:new 0 0 480 480;" xml:space="preserve">
<path style="fill:#E9686A;" d="M168,64h-56V8H64v56H8v48h56v56h48v-56h56V64z"/>
<path style="fill:#32B1CC;" d="M472,64v48H312V64H472z"/>
<g>
	<path style="fill:#55B56A;" d="M472,352v48H312v-48H472z"/>
	<circle style="fill:#55B56A;" cx="392" cy="304" r="24"/>
	<circle style="fill:#55B56A;" cx="392" cy="448" r="24"/>
</g>
<path style="fill:#195C85;" d="M392,232H248V88h-16v144H88v16h144v144h16V248h144V232z"/>
<path style="fill:#F49E21;" d="M176,328l-40-40l-40,40l-40-40l-40,39.104L56,368l-40,40l40,40l40-40l40,40l40-40l-40-40L176,328z"/>
<path d="M56,176h64v-56h56V56h-56V0H56v56H0v64h56V176z M16,104V72h56V16h32v56h56v32h-56v56H72v-56H16z"/>
<path d="M304,120h176V56H304V120z M320,72h144v32H320V72z"/>
<path d="M304,408h176v-64H304V408z M320,360h144v32H320V360z"/>
<path d="M360,304c0,17.673,14.327,32,32,32s32-14.327,32-32s-14.327-32-32-32S360,286.327,360,304z M408,304c0,8.837-7.163,16-16,16
	s-16-7.163-16-16s7.163-16,16-16S408,295.163,408,304z"/>
<path d="M424,448c0-17.673-14.327-32-32-32s-32,14.327-32,32s14.327,32,32,32S424,465.673,424,448z M376,448c0-8.837,7.163-16,16-16
	s16,7.163,16,16s-7.163,16-16,16S376,456.837,376,448z"/>
<path d="M232,88v144H88v16h144v144h16V248h144v-16H248V88H232z"/>
<path d="M56,459.312l40-40l40,40L187.312,408l-40-40l40-40L136,276.688l-40,40l-39.936-39.936L4.688,326.976l40.064,40.96L4.688,408
	L56,459.312z M27.312,327.2l28.624-28L96,339.312l40-40L164.688,328l-40,40l40,40L136,436.688l-40-40l-40,40L27.312,408
	l39.936-39.936L27.312,327.2z"/>
<g>
</g>
<g>
</g>
<g>
</g>
<g>
</g>
<g>
</g>
<g>
</g>
<g>
</g>
<g>
</g>
<g>
</g>
<g>
</g>
<g>
</g>
<g>
</g>
<g>
</g>
<g>
</g>
<g>
</g>
</svg>
